<mxfile host="app.diagrams.net" modified="2022-02-12T03:51:25.523Z" agent="5.0 (Macintosh; Intel Mac OS X 10_15_7) AppleWebKit/537.36 (KHTML, like Gecko) Chrome/97.0.4692.99 Safari/537.36" etag="qlslCf2UVVfPzWcs5RHG" version="16.5.3" type="github">
  <diagram id="C5RBs43oDa-KdzZeNtuy" name="Page-1">
    <mxGraphModel dx="1210" dy="421" grid="0" gridSize="10" guides="1" tooltips="1" connect="1" arrows="1" fold="1" page="0" pageScale="1" pageWidth="827" pageHeight="1169" math="0" shadow="0">
      <root>
        <mxCell id="WIyWlLk6GJQsqaUBKTNV-0" />
        <mxCell id="WIyWlLk6GJQsqaUBKTNV-1" parent="WIyWlLk6GJQsqaUBKTNV-0" />
        <mxCell id="UaO2LbHVUY8CWi1lz__P-80" value="" style="rounded=0;whiteSpace=wrap;html=1;" vertex="1" parent="WIyWlLk6GJQsqaUBKTNV-1">
          <mxGeometry x="240" y="506" width="242" height="347" as="geometry" />
        </mxCell>
        <mxCell id="UaO2LbHVUY8CWi1lz__P-7" value="" style="rounded=0;whiteSpace=wrap;html=1;" vertex="1" parent="WIyWlLk6GJQsqaUBKTNV-1">
          <mxGeometry x="240" y="60" width="240" height="410" as="geometry" />
        </mxCell>
        <mxCell id="UaO2LbHVUY8CWi1lz__P-8" value="开始" style="rounded=1;whiteSpace=wrap;html=1;" vertex="1" parent="WIyWlLk6GJQsqaUBKTNV-1">
          <mxGeometry x="274.38" y="66" width="70" height="40" as="geometry" />
        </mxCell>
        <mxCell id="UaO2LbHVUY8CWi1lz__P-9" value="" style="endArrow=classic;html=1;rounded=0;exitX=0.5;exitY=1;exitDx=0;exitDy=0;" edge="1" parent="WIyWlLk6GJQsqaUBKTNV-1" source="UaO2LbHVUY8CWi1lz__P-8">
          <mxGeometry width="50" height="50" relative="1" as="geometry">
            <mxPoint x="553.75" y="310" as="sourcePoint" />
            <mxPoint x="309" y="127" as="targetPoint" />
          </mxGeometry>
        </mxCell>
        <mxCell id="UaO2LbHVUY8CWi1lz__P-11" value="" style="endArrow=classic;html=1;rounded=0;exitX=0.5;exitY=1;exitDx=0;exitDy=0;entryX=0.5;entryY=0;entryDx=0;entryDy=0;" edge="1" parent="WIyWlLk6GJQsqaUBKTNV-1" target="UaO2LbHVUY8CWi1lz__P-36">
          <mxGeometry width="50" height="50" relative="1" as="geometry">
            <mxPoint x="309.375" y="164" as="sourcePoint" />
            <mxPoint x="308.75" y="166" as="targetPoint" />
          </mxGeometry>
        </mxCell>
        <mxCell id="UaO2LbHVUY8CWi1lz__P-13" value="候选实体词典生成" style="text;html=1;align=center;verticalAlign=middle;resizable=0;points=[];autosize=1;strokeColor=none;fillColor=none;" vertex="1" parent="WIyWlLk6GJQsqaUBKTNV-1">
          <mxGeometry x="370" y="70" width="110" height="20" as="geometry" />
        </mxCell>
        <mxCell id="UaO2LbHVUY8CWi1lz__P-28" value="" style="rounded=0;whiteSpace=wrap;html=1;" vertex="1" parent="WIyWlLk6GJQsqaUBKTNV-1">
          <mxGeometry x="487" y="60" width="240" height="410" as="geometry" />
        </mxCell>
        <mxCell id="UaO2LbHVUY8CWi1lz__P-29" value="开始" style="rounded=1;whiteSpace=wrap;html=1;" vertex="1" parent="WIyWlLk6GJQsqaUBKTNV-1">
          <mxGeometry x="520.75" y="66" width="70" height="40" as="geometry" />
        </mxCell>
        <mxCell id="UaO2LbHVUY8CWi1lz__P-30" value="" style="endArrow=classic;html=1;rounded=0;exitX=0.5;exitY=1;exitDx=0;exitDy=0;" edge="1" parent="WIyWlLk6GJQsqaUBKTNV-1" source="UaO2LbHVUY8CWi1lz__P-29">
          <mxGeometry width="50" height="50" relative="1" as="geometry">
            <mxPoint x="800.75" y="310" as="sourcePoint" />
            <mxPoint x="555.75" y="150" as="targetPoint" />
          </mxGeometry>
        </mxCell>
        <mxCell id="UaO2LbHVUY8CWi1lz__P-31" value="遍历实体词典中的实体" style="rounded=0;whiteSpace=wrap;html=1;" vertex="1" parent="WIyWlLk6GJQsqaUBKTNV-1">
          <mxGeometry x="515.75" y="130.5" width="84.25" height="30" as="geometry" />
        </mxCell>
        <mxCell id="UaO2LbHVUY8CWi1lz__P-32" value="" style="endArrow=classic;html=1;rounded=0;exitX=0.5;exitY=1;exitDx=0;exitDy=0;entryX=0.5;entryY=0;entryDx=0;entryDy=0;" edge="1" parent="WIyWlLk6GJQsqaUBKTNV-1" source="UaO2LbHVUY8CWi1lz__P-31" target="UaO2LbHVUY8CWi1lz__P-37">
          <mxGeometry width="50" height="50" relative="1" as="geometry">
            <mxPoint x="800.75" y="310" as="sourcePoint" />
            <mxPoint x="555.75" y="200" as="targetPoint" />
          </mxGeometry>
        </mxCell>
        <mxCell id="UaO2LbHVUY8CWi1lz__P-34" value="实体信息采集" style="text;html=1;align=center;verticalAlign=middle;resizable=0;points=[];autosize=1;strokeColor=none;fillColor=none;" vertex="1" parent="WIyWlLk6GJQsqaUBKTNV-1">
          <mxGeometry x="627" y="70" width="90" height="20" as="geometry" />
        </mxCell>
        <mxCell id="UaO2LbHVUY8CWi1lz__P-40" style="edgeStyle=orthogonalEdgeStyle;rounded=0;orthogonalLoop=1;jettySize=auto;html=1;exitX=0.5;exitY=1;exitDx=0;exitDy=0;entryX=0.5;entryY=0;entryDx=0;entryDy=0;" edge="1" parent="WIyWlLk6GJQsqaUBKTNV-1" source="UaO2LbHVUY8CWi1lz__P-36" target="UaO2LbHVUY8CWi1lz__P-38">
          <mxGeometry relative="1" as="geometry" />
        </mxCell>
        <mxCell id="UaO2LbHVUY8CWi1lz__P-41" style="edgeStyle=orthogonalEdgeStyle;rounded=0;orthogonalLoop=1;jettySize=auto;html=1;exitX=1;exitY=0.5;exitDx=0;exitDy=0;entryX=1;entryY=0.5;entryDx=0;entryDy=0;" edge="1" parent="WIyWlLk6GJQsqaUBKTNV-1" source="UaO2LbHVUY8CWi1lz__P-36" target="UaO2LbHVUY8CWi1lz__P-63">
          <mxGeometry relative="1" as="geometry">
            <mxPoint x="350" y="183" as="targetPoint" />
          </mxGeometry>
        </mxCell>
        <mxCell id="UaO2LbHVUY8CWi1lz__P-36" value="是否存储在&lt;br&gt;数据库中" style="rhombus;whiteSpace=wrap;html=1;" vertex="1" parent="WIyWlLk6GJQsqaUBKTNV-1">
          <mxGeometry x="255" y="181" width="110" height="50" as="geometry" />
        </mxCell>
        <mxCell id="UaO2LbHVUY8CWi1lz__P-37" value="是否存储在&lt;br&gt;数据库中" style="rhombus;whiteSpace=wrap;html=1;" vertex="1" parent="WIyWlLk6GJQsqaUBKTNV-1">
          <mxGeometry x="502.88" y="203" width="110" height="50" as="geometry" />
        </mxCell>
        <mxCell id="UaO2LbHVUY8CWi1lz__P-46" style="edgeStyle=orthogonalEdgeStyle;rounded=0;orthogonalLoop=1;jettySize=auto;html=1;exitX=0.5;exitY=1;exitDx=0;exitDy=0;entryX=0.5;entryY=0;entryDx=0;entryDy=0;" edge="1" parent="WIyWlLk6GJQsqaUBKTNV-1" source="UaO2LbHVUY8CWi1lz__P-38" target="UaO2LbHVUY8CWi1lz__P-43">
          <mxGeometry relative="1" as="geometry" />
        </mxCell>
        <mxCell id="UaO2LbHVUY8CWi1lz__P-38" value="调用搜索引擎API" style="rounded=0;whiteSpace=wrap;html=1;" vertex="1" parent="WIyWlLk6GJQsqaUBKTNV-1">
          <mxGeometry x="251.25" y="256" width="116.25" height="20" as="geometry" />
        </mxCell>
        <mxCell id="UaO2LbHVUY8CWi1lz__P-49" style="edgeStyle=orthogonalEdgeStyle;rounded=0;orthogonalLoop=1;jettySize=auto;html=1;exitX=0.5;exitY=1;exitDx=0;exitDy=0;entryX=0.5;entryY=0;entryDx=0;entryDy=0;" edge="1" parent="WIyWlLk6GJQsqaUBKTNV-1" source="UaO2LbHVUY8CWi1lz__P-43" target="UaO2LbHVUY8CWi1lz__P-65">
          <mxGeometry relative="1" as="geometry" />
        </mxCell>
        <mxCell id="UaO2LbHVUY8CWi1lz__P-43" value="存储文字段和实体的映射关系到数据库" style="rounded=0;whiteSpace=wrap;html=1;" vertex="1" parent="WIyWlLk6GJQsqaUBKTNV-1">
          <mxGeometry x="250" y="294" width="120" height="32" as="geometry" />
        </mxCell>
        <mxCell id="UaO2LbHVUY8CWi1lz__P-44" value="是" style="text;html=1;align=center;verticalAlign=middle;resizable=0;points=[];autosize=1;strokeColor=none;fillColor=none;" vertex="1" parent="WIyWlLk6GJQsqaUBKTNV-1">
          <mxGeometry x="603" y="211" width="30" height="20" as="geometry" />
        </mxCell>
        <mxCell id="UaO2LbHVUY8CWi1lz__P-45" value="否" style="text;html=1;align=center;verticalAlign=middle;resizable=0;points=[];autosize=1;strokeColor=none;fillColor=none;" vertex="1" parent="WIyWlLk6GJQsqaUBKTNV-1">
          <mxGeometry x="307" y="226" width="30" height="20" as="geometry" />
        </mxCell>
        <mxCell id="UaO2LbHVUY8CWi1lz__P-48" value="结束" style="rounded=1;whiteSpace=wrap;html=1;" vertex="1" parent="WIyWlLk6GJQsqaUBKTNV-1">
          <mxGeometry x="274" y="436" width="70" height="27" as="geometry" />
        </mxCell>
        <mxCell id="UaO2LbHVUY8CWi1lz__P-52" value="解析相关信息并存储到数据库" style="rounded=0;whiteSpace=wrap;html=1;" vertex="1" parent="WIyWlLk6GJQsqaUBKTNV-1">
          <mxGeometry x="501.19000000000005" y="328" width="120" height="32" as="geometry" />
        </mxCell>
        <mxCell id="UaO2LbHVUY8CWi1lz__P-74" style="edgeStyle=orthogonalEdgeStyle;rounded=0;orthogonalLoop=1;jettySize=auto;html=1;entryX=0.5;entryY=0;entryDx=0;entryDy=0;exitX=0.5;exitY=1;exitDx=0;exitDy=0;" edge="1" parent="WIyWlLk6GJQsqaUBKTNV-1" source="UaO2LbHVUY8CWi1lz__P-72" target="UaO2LbHVUY8CWi1lz__P-57">
          <mxGeometry relative="1" as="geometry" />
        </mxCell>
        <mxCell id="UaO2LbHVUY8CWi1lz__P-51" value="爬取实体对应的&lt;br&gt;属性和结构数据" style="rounded=0;whiteSpace=wrap;html=1;" vertex="1" parent="WIyWlLk6GJQsqaUBKTNV-1">
          <mxGeometry x="500" y="270" width="122.37" height="40" as="geometry" />
        </mxCell>
        <mxCell id="UaO2LbHVUY8CWi1lz__P-55" value="" style="endArrow=classic;html=1;rounded=0;entryX=0.455;entryY=0.011;entryDx=0;entryDy=0;entryPerimeter=0;" edge="1" parent="WIyWlLk6GJQsqaUBKTNV-1">
          <mxGeometry width="50" height="50" relative="1" as="geometry">
            <mxPoint x="559" y="253" as="sourcePoint" />
            <mxPoint x="558.6783499999999" y="270.44000000000005" as="targetPoint" />
          </mxGeometry>
        </mxCell>
        <mxCell id="UaO2LbHVUY8CWi1lz__P-56" value="" style="endArrow=classic;html=1;rounded=0;exitX=0.5;exitY=1;exitDx=0;exitDy=0;entryX=0.5;entryY=0;entryDx=0;entryDy=0;" edge="1" parent="WIyWlLk6GJQsqaUBKTNV-1" source="UaO2LbHVUY8CWi1lz__P-51" target="UaO2LbHVUY8CWi1lz__P-52">
          <mxGeometry width="50" height="50" relative="1" as="geometry">
            <mxPoint x="490" y="250" as="sourcePoint" />
            <mxPoint x="540" y="200" as="targetPoint" />
          </mxGeometry>
        </mxCell>
        <mxCell id="UaO2LbHVUY8CWi1lz__P-57" value="结束" style="rounded=1;whiteSpace=wrap;html=1;" vertex="1" parent="WIyWlLk6GJQsqaUBKTNV-1">
          <mxGeometry x="526.19" y="433" width="70" height="30" as="geometry" />
        </mxCell>
        <mxCell id="UaO2LbHVUY8CWi1lz__P-58" value="" style="endArrow=classic;html=1;rounded=0;exitX=0.5;exitY=1;exitDx=0;exitDy=0;entryX=0.5;entryY=0;entryDx=0;entryDy=0;" edge="1" parent="WIyWlLk6GJQsqaUBKTNV-1" source="UaO2LbHVUY8CWi1lz__P-52" target="UaO2LbHVUY8CWi1lz__P-72">
          <mxGeometry width="50" height="50" relative="1" as="geometry">
            <mxPoint x="490" y="250" as="sourcePoint" />
            <mxPoint x="540" y="200" as="targetPoint" />
          </mxGeometry>
        </mxCell>
        <mxCell id="UaO2LbHVUY8CWi1lz__P-59" value="否" style="text;html=1;align=center;verticalAlign=middle;resizable=0;points=[];autosize=1;strokeColor=none;fillColor=none;" vertex="1" parent="WIyWlLk6GJQsqaUBKTNV-1">
          <mxGeometry x="526.19" y="250" width="30" height="20" as="geometry" />
        </mxCell>
        <mxCell id="UaO2LbHVUY8CWi1lz__P-60" style="edgeStyle=orthogonalEdgeStyle;rounded=0;orthogonalLoop=1;jettySize=auto;html=1;exitX=0.032;exitY=0.021;exitDx=0;exitDy=0;exitPerimeter=0;entryX=1;entryY=0.5;entryDx=0;entryDy=0;" edge="1" parent="WIyWlLk6GJQsqaUBKTNV-1" target="UaO2LbHVUY8CWi1lz__P-31">
          <mxGeometry relative="1" as="geometry">
            <mxPoint x="613.96" y="228.42000000000007" as="sourcePoint" />
            <mxPoint x="605" y="168" as="targetPoint" />
            <Array as="points">
              <mxPoint x="628" y="228" />
              <mxPoint x="628" y="146" />
              <mxPoint x="600" y="146" />
            </Array>
          </mxGeometry>
        </mxCell>
        <mxCell id="UaO2LbHVUY8CWi1lz__P-63" value="遍历训练文本中可能的文字段" style="whiteSpace=wrap;html=1;" vertex="1" parent="WIyWlLk6GJQsqaUBKTNV-1">
          <mxGeometry x="265.5" y="127" width="89" height="37" as="geometry" />
        </mxCell>
        <mxCell id="UaO2LbHVUY8CWi1lz__P-68" style="edgeStyle=orthogonalEdgeStyle;rounded=0;orthogonalLoop=1;jettySize=auto;html=1;exitX=1;exitY=0.5;exitDx=0;exitDy=0;entryX=1;entryY=0.5;entryDx=0;entryDy=0;" edge="1" parent="WIyWlLk6GJQsqaUBKTNV-1" source="UaO2LbHVUY8CWi1lz__P-65" target="UaO2LbHVUY8CWi1lz__P-63">
          <mxGeometry relative="1" as="geometry">
            <Array as="points">
              <mxPoint x="409" y="361" />
              <mxPoint x="409" y="145" />
            </Array>
          </mxGeometry>
        </mxCell>
        <mxCell id="UaO2LbHVUY8CWi1lz__P-65" value="是否遍历完成" style="rhombus;whiteSpace=wrap;html=1;" vertex="1" parent="WIyWlLk6GJQsqaUBKTNV-1">
          <mxGeometry x="264.38" y="344" width="90" height="34" as="geometry" />
        </mxCell>
        <mxCell id="UaO2LbHVUY8CWi1lz__P-66" value="" style="endArrow=classic;html=1;rounded=0;exitX=0.5;exitY=1;exitDx=0;exitDy=0;entryX=0.5;entryY=0;entryDx=0;entryDy=0;" edge="1" parent="WIyWlLk6GJQsqaUBKTNV-1" source="UaO2LbHVUY8CWi1lz__P-65" target="UaO2LbHVUY8CWi1lz__P-48">
          <mxGeometry width="50" height="50" relative="1" as="geometry">
            <mxPoint x="520" y="327" as="sourcePoint" />
            <mxPoint x="570" y="277" as="targetPoint" />
          </mxGeometry>
        </mxCell>
        <mxCell id="UaO2LbHVUY8CWi1lz__P-69" value="是" style="text;html=1;align=center;verticalAlign=middle;resizable=0;points=[];autosize=1;strokeColor=none;fillColor=none;" vertex="1" parent="WIyWlLk6GJQsqaUBKTNV-1">
          <mxGeometry x="362" y="190" width="22" height="18" as="geometry" />
        </mxCell>
        <mxCell id="UaO2LbHVUY8CWi1lz__P-70" value="是" style="text;html=1;align=center;verticalAlign=middle;resizable=0;points=[];autosize=1;strokeColor=none;fillColor=none;" vertex="1" parent="WIyWlLk6GJQsqaUBKTNV-1">
          <mxGeometry x="289" y="390" width="22" height="18" as="geometry" />
        </mxCell>
        <mxCell id="UaO2LbHVUY8CWi1lz__P-71" value="否" style="text;html=1;align=center;verticalAlign=middle;resizable=0;points=[];autosize=1;strokeColor=none;fillColor=none;" vertex="1" parent="WIyWlLk6GJQsqaUBKTNV-1">
          <mxGeometry x="358" y="344" width="30" height="20" as="geometry" />
        </mxCell>
        <mxCell id="UaO2LbHVUY8CWi1lz__P-75" style="edgeStyle=orthogonalEdgeStyle;rounded=0;orthogonalLoop=1;jettySize=auto;html=1;exitX=1;exitY=0.5;exitDx=0;exitDy=0;entryX=1;entryY=0.5;entryDx=0;entryDy=0;" edge="1" parent="WIyWlLk6GJQsqaUBKTNV-1" source="UaO2LbHVUY8CWi1lz__P-72" target="UaO2LbHVUY8CWi1lz__P-31">
          <mxGeometry relative="1" as="geometry">
            <Array as="points">
              <mxPoint x="667" y="393" />
              <mxPoint x="667" y="146" />
              <mxPoint x="600" y="146" />
            </Array>
          </mxGeometry>
        </mxCell>
        <mxCell id="UaO2LbHVUY8CWi1lz__P-72" value="是否遍历完成" style="rhombus;whiteSpace=wrap;html=1;" vertex="1" parent="WIyWlLk6GJQsqaUBKTNV-1">
          <mxGeometry x="516.19" y="380" width="90" height="26" as="geometry" />
        </mxCell>
        <mxCell id="UaO2LbHVUY8CWi1lz__P-76" value="是" style="text;html=1;align=center;verticalAlign=middle;resizable=0;points=[];autosize=1;strokeColor=none;fillColor=none;" vertex="1" parent="WIyWlLk6GJQsqaUBKTNV-1">
          <mxGeometry x="536" y="406" width="30" height="20" as="geometry" />
        </mxCell>
        <mxCell id="UaO2LbHVUY8CWi1lz__P-77" value="否" style="text;html=1;align=center;verticalAlign=middle;resizable=0;points=[];autosize=1;strokeColor=none;fillColor=none;" vertex="1" parent="WIyWlLk6GJQsqaUBKTNV-1">
          <mxGeometry x="606.19" y="374" width="30" height="20" as="geometry" />
        </mxCell>
        <mxCell id="UaO2LbHVUY8CWi1lz__P-86" style="edgeStyle=orthogonalEdgeStyle;rounded=0;orthogonalLoop=1;jettySize=auto;html=1;exitX=0.5;exitY=1;exitDx=0;exitDy=0;entryX=0.5;entryY=0;entryDx=0;entryDy=0;" edge="1" parent="WIyWlLk6GJQsqaUBKTNV-1" source="UaO2LbHVUY8CWi1lz__P-78" target="UaO2LbHVUY8CWi1lz__P-79">
          <mxGeometry relative="1" as="geometry" />
        </mxCell>
        <mxCell id="UaO2LbHVUY8CWi1lz__P-78" value="开始" style="rounded=1;whiteSpace=wrap;html=1;" vertex="1" parent="WIyWlLk6GJQsqaUBKTNV-1">
          <mxGeometry x="293" y="521" width="90" height="23" as="geometry" />
        </mxCell>
        <mxCell id="UaO2LbHVUY8CWi1lz__P-79" value="处理文本特殊字符" style="rounded=0;whiteSpace=wrap;html=1;" vertex="1" parent="WIyWlLk6GJQsqaUBKTNV-1">
          <mxGeometry x="277.5" y="561" width="121" height="29" as="geometry" />
        </mxCell>
        <mxCell id="UaO2LbHVUY8CWi1lz__P-81" value="" style="rounded=0;whiteSpace=wrap;html=1;" vertex="1" parent="WIyWlLk6GJQsqaUBKTNV-1">
          <mxGeometry x="-8" y="506" width="244" height="347" as="geometry" />
        </mxCell>
        <mxCell id="UaO2LbHVUY8CWi1lz__P-82" value="开始" style="rounded=1;whiteSpace=wrap;html=1;flipH=0;" vertex="1" parent="WIyWlLk6GJQsqaUBKTNV-1">
          <mxGeometry x="45" y="546" width="90" height="23" as="geometry" />
        </mxCell>
        <mxCell id="UaO2LbHVUY8CWi1lz__P-114" style="edgeStyle=orthogonalEdgeStyle;rounded=0;orthogonalLoop=1;jettySize=auto;html=1;entryX=0.5;entryY=0;entryDx=0;entryDy=0;" edge="1" parent="WIyWlLk6GJQsqaUBKTNV-1" source="UaO2LbHVUY8CWi1lz__P-83" target="UaO2LbHVUY8CWi1lz__P-106">
          <mxGeometry relative="1" as="geometry" />
        </mxCell>
        <mxCell id="UaO2LbHVUY8CWi1lz__P-83" value="数据库数据读取" style="rounded=0;whiteSpace=wrap;html=1;flipH=0;" vertex="1" parent="WIyWlLk6GJQsqaUBKTNV-1">
          <mxGeometry x="30" y="599" width="121" height="29" as="geometry" />
        </mxCell>
        <mxCell id="UaO2LbHVUY8CWi1lz__P-84" value="用户输入文本预处理" style="text;html=1;strokeColor=none;fillColor=none;align=center;verticalAlign=middle;whiteSpace=wrap;rounded=0;" vertex="1" parent="WIyWlLk6GJQsqaUBKTNV-1">
          <mxGeometry x="401" y="514" width="77" height="31" as="geometry" />
        </mxCell>
        <mxCell id="UaO2LbHVUY8CWi1lz__P-85" value="数据库数据预处理" style="text;html=1;strokeColor=none;fillColor=none;align=center;verticalAlign=middle;whiteSpace=wrap;rounded=0;" vertex="1" parent="WIyWlLk6GJQsqaUBKTNV-1">
          <mxGeometry x="149" y="513" width="77" height="31" as="geometry" />
        </mxCell>
        <mxCell id="UaO2LbHVUY8CWi1lz__P-87" value="遍历分词结果" style="rounded=0;whiteSpace=wrap;html=1;" vertex="1" parent="WIyWlLk6GJQsqaUBKTNV-1">
          <mxGeometry x="277.5" y="645" width="121" height="29" as="geometry" />
        </mxCell>
        <mxCell id="UaO2LbHVUY8CWi1lz__P-88" value="文本命名实体识别" style="rounded=0;whiteSpace=wrap;html=1;" vertex="1" parent="WIyWlLk6GJQsqaUBKTNV-1">
          <mxGeometry x="277.5" y="602" width="121" height="29" as="geometry" />
        </mxCell>
        <mxCell id="UaO2LbHVUY8CWi1lz__P-89" value="是否在实体词典中" style="rhombus;whiteSpace=wrap;html=1;" vertex="1" parent="WIyWlLk6GJQsqaUBKTNV-1">
          <mxGeometry x="264" y="687" width="148" height="27" as="geometry" />
        </mxCell>
        <mxCell id="UaO2LbHVUY8CWi1lz__P-90" value="" style="endArrow=classic;html=1;rounded=0;exitX=0.5;exitY=1;exitDx=0;exitDy=0;entryX=0.5;entryY=0;entryDx=0;entryDy=0;" edge="1" parent="WIyWlLk6GJQsqaUBKTNV-1" source="UaO2LbHVUY8CWi1lz__P-87" target="UaO2LbHVUY8CWi1lz__P-89">
          <mxGeometry width="50" height="50" relative="1" as="geometry">
            <mxPoint x="519" y="764" as="sourcePoint" />
            <mxPoint x="569" y="714" as="targetPoint" />
          </mxGeometry>
        </mxCell>
        <mxCell id="UaO2LbHVUY8CWi1lz__P-91" value="获得候选实体集合" style="rounded=0;whiteSpace=wrap;html=1;" vertex="1" parent="WIyWlLk6GJQsqaUBKTNV-1">
          <mxGeometry x="279" y="727" width="119" height="18" as="geometry" />
        </mxCell>
        <mxCell id="UaO2LbHVUY8CWi1lz__P-92" value="" style="endArrow=classic;html=1;rounded=0;exitX=0.5;exitY=1;exitDx=0;exitDy=0;entryX=0.5;entryY=0;entryDx=0;entryDy=0;" edge="1" parent="WIyWlLk6GJQsqaUBKTNV-1" source="UaO2LbHVUY8CWi1lz__P-89" target="UaO2LbHVUY8CWi1lz__P-91">
          <mxGeometry width="50" height="50" relative="1" as="geometry">
            <mxPoint x="519" y="764" as="sourcePoint" />
            <mxPoint x="569" y="714" as="targetPoint" />
          </mxGeometry>
        </mxCell>
        <mxCell id="UaO2LbHVUY8CWi1lz__P-93" value="" style="endArrow=classic;html=1;rounded=0;exitX=0.5;exitY=1;exitDx=0;exitDy=0;entryX=0.5;entryY=0;entryDx=0;entryDy=0;" edge="1" parent="WIyWlLk6GJQsqaUBKTNV-1" source="UaO2LbHVUY8CWi1lz__P-79" target="UaO2LbHVUY8CWi1lz__P-88">
          <mxGeometry width="50" height="50" relative="1" as="geometry">
            <mxPoint x="519" y="683" as="sourcePoint" />
            <mxPoint x="569" y="633" as="targetPoint" />
          </mxGeometry>
        </mxCell>
        <mxCell id="UaO2LbHVUY8CWi1lz__P-94" value="" style="endArrow=classic;html=1;rounded=0;exitX=0.5;exitY=1;exitDx=0;exitDy=0;entryX=0.5;entryY=0;entryDx=0;entryDy=0;" edge="1" parent="WIyWlLk6GJQsqaUBKTNV-1" source="UaO2LbHVUY8CWi1lz__P-88" target="UaO2LbHVUY8CWi1lz__P-87">
          <mxGeometry width="50" height="50" relative="1" as="geometry">
            <mxPoint x="519" y="683" as="sourcePoint" />
            <mxPoint x="569" y="633" as="targetPoint" />
          </mxGeometry>
        </mxCell>
        <mxCell id="UaO2LbHVUY8CWi1lz__P-98" style="edgeStyle=orthogonalEdgeStyle;rounded=0;orthogonalLoop=1;jettySize=auto;html=1;exitX=0.5;exitY=1;exitDx=0;exitDy=0;entryX=0.5;entryY=0;entryDx=0;entryDy=0;" edge="1" parent="WIyWlLk6GJQsqaUBKTNV-1" source="UaO2LbHVUY8CWi1lz__P-95" target="UaO2LbHVUY8CWi1lz__P-97">
          <mxGeometry relative="1" as="geometry" />
        </mxCell>
        <mxCell id="UaO2LbHVUY8CWi1lz__P-95" value="是否遍历完成" style="rhombus;whiteSpace=wrap;html=1;" vertex="1" parent="WIyWlLk6GJQsqaUBKTNV-1">
          <mxGeometry x="286" y="759" width="105" height="31" as="geometry" />
        </mxCell>
        <mxCell id="UaO2LbHVUY8CWi1lz__P-96" value="" style="endArrow=classic;html=1;rounded=0;exitX=0.5;exitY=1;exitDx=0;exitDy=0;entryX=0.5;entryY=0;entryDx=0;entryDy=0;" edge="1" parent="WIyWlLk6GJQsqaUBKTNV-1" source="UaO2LbHVUY8CWi1lz__P-91" target="UaO2LbHVUY8CWi1lz__P-95">
          <mxGeometry width="50" height="50" relative="1" as="geometry">
            <mxPoint x="519" y="747" as="sourcePoint" />
            <mxPoint x="569" y="697" as="targetPoint" />
          </mxGeometry>
        </mxCell>
        <mxCell id="UaO2LbHVUY8CWi1lz__P-97" value="结束" style="rounded=1;whiteSpace=wrap;html=1;" vertex="1" parent="WIyWlLk6GJQsqaUBKTNV-1">
          <mxGeometry x="293" y="823" width="90" height="23" as="geometry" />
        </mxCell>
        <mxCell id="UaO2LbHVUY8CWi1lz__P-99" value="是" style="text;html=1;strokeColor=none;fillColor=none;align=center;verticalAlign=middle;whiteSpace=wrap;rounded=0;" vertex="1" parent="WIyWlLk6GJQsqaUBKTNV-1">
          <mxGeometry x="298" y="777" width="60" height="58" as="geometry" />
        </mxCell>
        <mxCell id="UaO2LbHVUY8CWi1lz__P-100" value="否" style="text;html=1;strokeColor=none;fillColor=none;align=center;verticalAlign=middle;whiteSpace=wrap;rounded=0;" vertex="1" parent="WIyWlLk6GJQsqaUBKTNV-1">
          <mxGeometry x="370" y="736" width="60" height="58" as="geometry" />
        </mxCell>
        <mxCell id="UaO2LbHVUY8CWi1lz__P-101" value="" style="endArrow=classic;html=1;rounded=0;exitX=0.3;exitY=0.672;exitDx=0;exitDy=0;exitPerimeter=0;entryX=1;entryY=0.5;entryDx=0;entryDy=0;edgeStyle=orthogonalEdgeStyle;" edge="1" parent="WIyWlLk6GJQsqaUBKTNV-1" source="UaO2LbHVUY8CWi1lz__P-100" target="UaO2LbHVUY8CWi1lz__P-87">
          <mxGeometry width="50" height="50" relative="1" as="geometry">
            <mxPoint x="519" y="747" as="sourcePoint" />
            <mxPoint x="569" y="697" as="targetPoint" />
            <Array as="points">
              <mxPoint x="438" y="775" />
              <mxPoint x="438" y="659" />
              <mxPoint x="398" y="659" />
            </Array>
          </mxGeometry>
        </mxCell>
        <mxCell id="UaO2LbHVUY8CWi1lz__P-106" value="数据去重" style="rounded=0;whiteSpace=wrap;html=1;flipH=0;" vertex="1" parent="WIyWlLk6GJQsqaUBKTNV-1">
          <mxGeometry x="30" y="658" width="121" height="29" as="geometry" />
        </mxCell>
        <mxCell id="UaO2LbHVUY8CWi1lz__P-107" value="" style="endArrow=classic;html=1;rounded=0;exitX=0.5;exitY=1;exitDx=0;exitDy=0;entryX=0.5;entryY=0;entryDx=0;entryDy=0;" edge="1" parent="WIyWlLk6GJQsqaUBKTNV-1" source="UaO2LbHVUY8CWi1lz__P-82" target="UaO2LbHVUY8CWi1lz__P-83">
          <mxGeometry width="50" height="50" relative="1" as="geometry">
            <mxPoint x="20" y="714" as="sourcePoint" />
            <mxPoint x="70" y="664" as="targetPoint" />
          </mxGeometry>
        </mxCell>
        <mxCell id="UaO2LbHVUY8CWi1lz__P-108" value="数据清洗" style="rounded=0;whiteSpace=wrap;html=1;flipH=0;" vertex="1" parent="WIyWlLk6GJQsqaUBKTNV-1">
          <mxGeometry x="30" y="723" width="121" height="29" as="geometry" />
        </mxCell>
        <mxCell id="UaO2LbHVUY8CWi1lz__P-111" value="" style="endArrow=classic;html=1;rounded=0;exitX=0.5;exitY=1;exitDx=0;exitDy=0;entryX=0.5;entryY=0;entryDx=0;entryDy=0;" edge="1" parent="WIyWlLk6GJQsqaUBKTNV-1" source="UaO2LbHVUY8CWi1lz__P-106" target="UaO2LbHVUY8CWi1lz__P-108">
          <mxGeometry width="50" height="50" relative="1" as="geometry">
            <mxPoint x="20" y="714" as="sourcePoint" />
            <mxPoint x="70" y="664" as="targetPoint" />
          </mxGeometry>
        </mxCell>
        <mxCell id="UaO2LbHVUY8CWi1lz__P-112" value="结束" style="rounded=1;whiteSpace=wrap;html=1;flipH=0;" vertex="1" parent="WIyWlLk6GJQsqaUBKTNV-1">
          <mxGeometry x="46" y="788" width="90" height="23" as="geometry" />
        </mxCell>
        <mxCell id="UaO2LbHVUY8CWi1lz__P-113" value="" style="endArrow=classic;html=1;rounded=0;exitX=0.5;exitY=1;exitDx=0;exitDy=0;entryX=0.5;entryY=0;entryDx=0;entryDy=0;" edge="1" parent="WIyWlLk6GJQsqaUBKTNV-1" source="UaO2LbHVUY8CWi1lz__P-108" target="UaO2LbHVUY8CWi1lz__P-112">
          <mxGeometry width="50" height="50" relative="1" as="geometry">
            <mxPoint x="20" y="714" as="sourcePoint" />
            <mxPoint x="70" y="664" as="targetPoint" />
          </mxGeometry>
        </mxCell>
        <mxCell id="UaO2LbHVUY8CWi1lz__P-116" value="开始" style="rounded=1;whiteSpace=wrap;html=1;flipH=0;flipV=1;" vertex="1" parent="WIyWlLk6GJQsqaUBKTNV-1">
          <mxGeometry x="16" y="906" width="69" height="16" as="geometry" />
        </mxCell>
        <mxCell id="UaO2LbHVUY8CWi1lz__P-117" value="读取已完成&lt;br&gt;预处理的数据" style="rounded=0;whiteSpace=wrap;html=1;flipH=0;flipV=1;" vertex="1" parent="WIyWlLk6GJQsqaUBKTNV-1">
          <mxGeometry x="-8" y="942" width="117" height="37" as="geometry" />
        </mxCell>
        <mxCell id="UaO2LbHVUY8CWi1lz__P-118" value="PA-EL模型计算" style="rounded=0;whiteSpace=wrap;html=1;flipH=0;flipV=1;" vertex="1" parent="WIyWlLk6GJQsqaUBKTNV-1">
          <mxGeometry x="-9" y="1000" width="119" height="21" as="geometry" />
        </mxCell>
        <mxCell id="UaO2LbHVUY8CWi1lz__P-119" value="存储分析结果数据" style="rounded=0;whiteSpace=wrap;html=1;flipH=0;flipV=1;" vertex="1" parent="WIyWlLk6GJQsqaUBKTNV-1">
          <mxGeometry x="-9" y="1048" width="120" height="24" as="geometry" />
        </mxCell>
        <mxCell id="UaO2LbHVUY8CWi1lz__P-120" value="结束" style="rounded=1;whiteSpace=wrap;html=1;flipH=0;flipV=1;" vertex="1" parent="WIyWlLk6GJQsqaUBKTNV-1">
          <mxGeometry x="10" y="1089" width="83" height="18" as="geometry" />
        </mxCell>
      </root>
    </mxGraphModel>
  </diagram>
</mxfile>
